<svg width="179" height="40" viewBox="0 0 179 40" fill="none" xmlns="http://www.w3.org/2000/svg">
<path d="M34.1422 5.85781C30.3647 2.08031 25.3422 0 20 0C14.6578 0 9.63531 2.08031 5.85781 5.85781C2.08031 9.63531 0 14.6578 0 20C0 25.3422 2.08039 30.3646 5.85781 34.1422C9.63523 37.9198 14.6578 40 20 40C25.3422 40 30.3647 37.9197 34.1422 34.1422C37.9197 30.3647 40 25.3422 40 20C40 14.6578 37.9196 9.63539 34.1422 5.85781Z" fill="#33CC95"/>
<g clip-path="url(#clip0_1_7)">
<path d="M20.5714 8V33.1429" stroke="white" stroke-width="2" stroke-linecap="round" stroke-linejoin="round"/>
<path d="M26.2857 12.5714H17.7143C16.6534 12.5714 15.636 12.9929 14.8859 13.743C14.1357 14.4931 13.7143 15.5106 13.7143 16.5714C13.7143 17.6323 14.1357 18.6497 14.8859 19.3999C15.636 20.15 16.6534 20.5714 17.7143 20.5714H23.4286C24.4894 20.5714 25.5069 20.9929 26.257 21.743C27.0072 22.4931 27.4286 23.5106 27.4286 24.5714C27.4286 25.6323 27.0072 26.6497 26.257 27.3999C25.5069 28.15 24.4894 28.5714 23.4286 28.5714H13.7143" stroke="white" stroke-width="2" stroke-linecap="round" stroke-linejoin="round"/>
</g>
<path d="M56.517 12.5455H61.0682L65.875 24.2727H66.0795L70.8864 12.5455H75.4375V30H71.858V18.6392H71.7131L67.196 29.9148H64.7585L60.2415 18.5966H60.0966V30H56.517V12.5455ZM80.6513 34.9091C80.1911 34.9091 79.7592 34.8722 79.3558 34.7983C78.9581 34.7301 78.6286 34.642 78.3672 34.5341L79.1854 31.8239C79.6115 31.9545 79.995 32.0256 80.3359 32.0369C80.6825 32.0483 80.9808 31.9688 81.2308 31.7983C81.4865 31.6278 81.6939 31.3381 81.853 30.929L82.0661 30.375L77.37 16.9091H81.1882L83.8984 26.5227H84.0348L86.7706 16.9091H90.6143L85.5263 31.4148C85.282 32.1193 84.9496 32.733 84.5291 33.2557C84.1143 33.7841 83.5888 34.1903 82.9524 34.4744C82.3161 34.7642 81.549 34.9091 80.6513 34.9091ZM98.0952 12.5455H102.646L107.453 24.2727H107.658L112.464 12.5455H117.016V30H113.436V18.6392H113.291L108.774 29.9148H106.337L101.82 18.5966H101.675V30H98.0952V12.5455ZM125.903 30.2557C124.579 30.2557 123.434 29.9744 122.468 29.4119C121.508 28.8437 120.766 28.054 120.244 27.0426C119.721 26.0256 119.46 24.8466 119.46 23.5057C119.46 22.1534 119.721 20.9716 120.244 19.9602C120.766 18.9432 121.508 18.1534 122.468 17.5909C123.434 17.0227 124.579 16.7386 125.903 16.7386C127.227 16.7386 128.369 17.0227 129.329 17.5909C130.295 18.1534 131.039 18.9432 131.562 19.9602C132.085 20.9716 132.346 22.1534 132.346 23.5057C132.346 24.8466 132.085 26.0256 131.562 27.0426C131.039 28.054 130.295 28.8437 129.329 29.4119C128.369 29.9744 127.227 30.2557 125.903 30.2557ZM125.92 27.4432C126.522 27.4432 127.025 27.2727 127.428 26.9318C127.832 26.5852 128.136 26.1136 128.34 25.517C128.55 24.9205 128.656 24.2415 128.656 23.4801C128.656 22.7188 128.55 22.0398 128.34 21.4432C128.136 20.8466 127.832 20.375 127.428 20.0284C127.025 19.6818 126.522 19.5085 125.92 19.5085C125.312 19.5085 124.8 19.6818 124.386 20.0284C123.977 20.375 123.667 20.8466 123.457 21.4432C123.252 22.0398 123.15 22.7188 123.15 23.4801C123.15 24.2415 123.252 24.9205 123.457 25.517C123.667 26.1136 123.977 26.5852 124.386 26.9318C124.8 27.2727 125.312 27.4432 125.92 27.4432ZM138.337 22.4318V30H134.707V16.9091H138.167V19.2188H138.32C138.61 18.4574 139.096 17.8551 139.778 17.4119C140.46 16.9631 141.286 16.7386 142.258 16.7386C143.167 16.7386 143.96 16.9375 144.636 17.3352C145.312 17.733 145.837 18.3011 146.212 19.0398C146.587 19.7727 146.775 20.6477 146.775 21.6648V30H143.144V22.3125C143.15 21.5114 142.945 20.8864 142.531 20.4375C142.116 19.983 141.545 19.7557 140.817 19.7557C140.329 19.7557 139.897 19.8608 139.522 20.071C139.153 20.2812 138.863 20.5881 138.653 20.9915C138.448 21.3892 138.343 21.8693 138.337 22.4318ZM155.602 30.2557C154.256 30.2557 153.097 29.983 152.125 29.4375C151.159 28.8864 150.415 28.108 149.892 27.1023C149.369 26.0909 149.108 24.8949 149.108 23.5142C149.108 22.1676 149.369 20.9858 149.892 19.9688C150.415 18.9517 151.151 18.1591 152.099 17.5909C153.054 17.0227 154.173 16.7386 155.457 16.7386C156.321 16.7386 157.125 16.8778 157.869 17.1562C158.619 17.429 159.273 17.8409 159.83 18.392C160.392 18.9432 160.83 19.6364 161.142 20.4716C161.455 21.3011 161.611 22.2727 161.611 23.3864V24.3835H150.557V22.1335H158.193C158.193 21.6108 158.08 21.1477 157.852 20.7443C157.625 20.3409 157.31 20.0256 156.906 19.7983C156.509 19.5653 156.045 19.4489 155.517 19.4489C154.966 19.4489 154.477 19.5767 154.051 19.8324C153.631 20.0824 153.301 20.4205 153.062 20.8466C152.824 21.267 152.702 21.7358 152.696 22.2528V24.392C152.696 25.0398 152.815 25.5994 153.054 26.071C153.298 26.5426 153.642 26.9062 154.085 27.1619C154.528 27.4176 155.054 27.5455 155.662 27.5455C156.065 27.5455 156.435 27.4886 156.77 27.375C157.105 27.2614 157.392 27.0909 157.631 26.8636C157.869 26.6364 158.051 26.358 158.176 26.0284L161.534 26.25C161.364 27.0568 161.014 27.7614 160.486 28.3636C159.963 28.9602 159.287 29.4261 158.457 29.7614C157.634 30.0909 156.682 30.2557 155.602 30.2557ZM165.87 34.9091C165.41 34.9091 164.978 34.8722 164.575 34.7983C164.177 34.7301 163.847 34.642 163.586 34.5341L164.404 31.8239C164.83 31.9545 165.214 32.0256 165.555 32.0369C165.901 32.0483 166.2 31.9688 166.45 31.7983C166.705 31.6278 166.913 31.3381 167.072 30.929L167.285 30.375L162.589 16.9091H166.407L169.117 26.5227H169.254L171.989 16.9091H175.833L170.745 31.4148C170.501 32.1193 170.168 32.733 169.748 33.2557C169.333 33.7841 168.808 34.1903 168.171 34.4744C167.535 34.7642 166.768 34.9091 165.87 34.9091Z" fill="white"/>
<defs>
<clipPath id="clip0_1_7">
<rect width="27.4286" height="27.4286" fill="white" transform="translate(6.85715 6.85714)"/>
</clipPath>
</defs>
</svg>
